<svg id="Capa_1" data-name="Capa 1" xmlns="http://www.w3.org/2000/svg" viewBox="0 0 45.77 46"><defs><style>.cls-1{fill:#fff;}</style></defs><path class="cls-1" d="M15.5,4.4C9.5,7.2,6.8,10,4.1,16,.5,23.9,2.2,34.3,8.3,40.9,11.6,44.5,19.8,48,25,48s13.4-3.5,16.7-7.1S48,29.9,48,25c0-5.2-3.5-13.4-7.1-16.7S29.9,2,25,2A25.11,25.11,0,0,0,15.5,4.4Zm18,1.5A20.89,20.89,0,1,1,5.9,33.5C-2,16.4,16.3-1.9,33.5,5.9Z" transform="translate(-2.23 -2)"/><path class="cls-1" d="M21,14.7c0,.4,2.1,2.9,4.7,5.5L30.4,25l-4.9,5c-2.7,2.7-4.6,5.3-4.2,5.7s3.3-1.9,6.5-5L33.5,25,28,19.5C22.9,14.3,21,13,21,14.7Z" transform="translate(-2.23 -2)"/></svg>