<?xml version="1.0" standalone="no"?>
<!DOCTYPE svg PUBLIC "-//W3C//DTD SVG 20010904//EN"
 "http://www.w3.org/TR/2001/REC-SVG-20010904/DTD/svg10.dtd">
<svg version="1.0" xmlns="http://www.w3.org/2000/svg"
 width="512.000000pt" height="512.000000pt" viewBox="0 0 512.000000 512.000000"
 preserveAspectRatio="xMidYMid meet">

<g transform="translate(0.000000,512.000000) scale(0.100000,-0.100000)"
fill="#000000" stroke="none">
<path d="M3980 1560 l0 -1260 -165 0 -165 0 0 615 0 615 -460 0 -460 0 0 -615
0 -615 -85 0 -85 0 0 -150 0 -150 1280 0 1280 0 0 150 0 150 -105 0 -105 0 0
1260 0 1260 -465 0 -465 0 0 -1260z"/>
<path d="M1470 1185 l0 -885 460 0 460 0 0 885 0 885 -460 0 -460 0 0 -885z"/>
<path d="M210 725 l0 -425 465 0 465 0 0 425 0 425 -465 0 -465 0 0 -425z"/>
</g>
</svg>
