<?xml version="1.0" standalone="no"?>
<svg xmlns:xlink="http://www.w3.org/1999/xlink" id="wave" style="transform:rotate(180deg); transition: 0.3s" viewBox="0 0 1440 260" version="1.1" xmlns="http://www.w3.org/2000/svg"><defs><linearGradient id="sw-gradient-0" x1="0" x2="0" y1="1" y2="0"><stop stop-color="rgba(25.661, 68.86, 191.606, 1)" offset="0%"/><stop stop-color="rgba(10.137, 173.554, 232.588, 0.74)" offset="100%"/></linearGradient></defs><path style="transform:translate(0, 0px); opacity:1" fill="url(#sw-gradient-0)" d="M0,130L720,0L1440,208L2160,52L2880,0L3600,130L4320,156L5040,182L5760,156L6480,208L7200,130L7920,234L8640,208L9360,0L10080,52L10800,52L11520,182L12240,182L12960,208L13680,156L14400,130L15120,0L15840,156L16560,78L17280,182L17280,260L16560,260L15840,260L15120,260L14400,260L13680,260L12960,260L12240,260L11520,260L10800,260L10080,260L9360,260L8640,260L7920,260L7200,260L6480,260L5760,260L5040,260L4320,260L3600,260L2880,260L2160,260L1440,260L720,260L0,260Z"/><defs><linearGradient id="sw-gradient-1" x1="0" x2="0" y1="1" y2="0"><stop stop-color="rgba(49.098, 81.802, 218.927, 0.76)" offset="0%"/><stop stop-color="rgba(11, 173.715, 255, 0.7)" offset="100%"/></linearGradient></defs><path style="transform:translate(0, 50px); opacity:0.9" fill="url(#sw-gradient-1)" d="M0,78L720,156L1440,130L2160,234L2880,182L3600,234L4320,0L5040,234L5760,208L6480,104L7200,234L7920,104L8640,156L9360,52L10080,130L10800,78L11520,78L12240,234L12960,0L13680,0L14400,26L15120,0L15840,130L16560,52L17280,234L17280,260L16560,260L15840,260L15120,260L14400,260L13680,260L12960,260L12240,260L11520,260L10800,260L10080,260L9360,260L8640,260L7920,260L7200,260L6480,260L5760,260L5040,260L4320,260L3600,260L2880,260L2160,260L1440,260L720,260L0,260Z"/></svg>