<?xml version="1.0" encoding="UTF-8"?>
<svg xmlns="http://www.w3.org/2000/svg" viewBox="0 0 400 194.77">
  <defs>
    <style>
      .cls-1 {
        mix-blend-mode: multiply;
      }

      .cls-2 {
        isolation: isolate;
      }
    </style>
  </defs>
  <g class="cls-2">
    <g id="Layer_2" data-name="Layer 2">
      <g id="Layer_1-2" data-name="Layer 1">
        <g>
          <g>
            <g>
              <path class="cls-1" d="m219.39,88.72c-27.53-25.15-57.78,15.72-40.21,31.77,4.77,4.36,9.86,1.83,9.86,1.83-15.04-13.75,8.93-43.16,23.81-29.57,13.46,12.3,3.74,58.38-9.18,45.93-4.68-4.51-2.72-17.28-2.44-18.95,1.49-8.49,3.29-15.27,5.82-18.03,0,0-5.79-4.59-12.27,2.5-7.52,8.24-6.98,75.87-19.49,76.43,0,0,6.19,7.73,14.33-1.18,4.05-4.43,6.19-19.86,8.25-35.93.68,1.19,1.55,2.36,2.71,3.42,20.18,18.44,41.24-37.73,18.81-58.22Z"/>
              <path class="cls-1" d="m388.74,111.09c-2.09,0-4.17.35-6.26.94.08-1.03.18-2.13.3-3.3.74-7.06,3.59-11.71,3.59-15.71s-3.95-6.81-8.89-10.48c.89-3.9,1.37-7.27,1.37-9.66,0-12.31-17.01-12.8-17.01-.93,0,3.28,1.75,7.24,6.2,11.61.82.81,1.6,1.57,2.32,2.28-5.12,16.97-17.72,38.6-26.63,29.69-1.64-1.64-2.52-3.94-2.83-6.56,6.54,8.8,31.39-18.39,19.29-30.48-12.41-12.41-28.75,11.42-28.45,30.2-.62,8.9-4.82,14.91-8.61,11.84-4.24-3.44,7.74-31.58,3.19-37.52-2.57-3.35-8.31-2-8.31-2,0,10.07-3.77,20.07-5.61,30.54-.01,0-.02-.01-.02-.01-2.29,9.71-6.93,15.34-9.98,12.28-3.79-3.8,8.01-31.34,3.46-37.28-2.57-3.35-8.41-2.26-8.41-2.26,0,8.82-4.28,22.15-5.92,33.22-1.7,6.41-5.05,13.55-8.77,10.11-3.71-3.44,7.82-32.34,3.13-38.18-2.57-3.19-8.16-1.83-8.16-1.83,0,4.38-4.73,14.5-11.17,19.18-1.09-5.46-3.55-10.06-7.61-12.48-22.27-13.29-38.5,35.57-18.43,47.54,15.7,9.37,26.42-10.05,26.71-27.22,3.08-1.68,5.72-4.28,7.74-7.16-1.78,8.53-3.75,16.75-3.75,21.59,0,8.45,7.98,10.82,12.09,9.48,4.13-1.35,7-4.47,8.68-8.38,1.34,3.04,4.2,5.78,9.97,5.04,3.87-.49,7.96-4.05,10.79-8.21,2.51,4.22,7.97,5.53,11.21,4.6,5.75-1.64,9.74-4.7,11.52-10.31.42.57.88,1.12,1.39,1.64,1.94,2,6.46,5.46,12.18,4.45,11.48-2.03,21.19-20.92,26.19-36.67,1.74,1.75,2.63,2.67,2.63,2.67,0,3.33-3.84,11.73-4.57,22.69-10.99,6.25-43.84,31.64-78.38,31.64-21.75,0-28.52-9.49-28.52-9.25-2.09,13.4,9.15,23.71,25.7,23.71,30.42,0,67.37-29.04,81.73-38.14,1.95,6.74,7.85,10.22,13.1,10.22,7.77,0,13.06-5.08,13.06-12.79,0-5.85-3.35-10.36-11.26-10.36Zm-136.82-10.42c.42.18.84.41,1.27.72,1.94,1.4,3.04,4.05,3.51,7.26-1.22-.47-2.45-1.23-3.67-2.35-2.16-1.96-2.04-4.52-1.11-5.64Zm-6.67,33.65c-5.21-3.77-4.77-19.68-.93-28.34.84,2.4,2.33,4.79,4.87,6.71,2.6,1.97,5.14,3.12,7.58,3.63-1.07,10.54-6.31,21.75-11.51,18Zm109.67-51.69c4.01,4.01-7.2,23.06-13.95,20.99,1.4-11.52,9.91-25.03,13.95-20.99Zm15.33-5.93c-4.02-3.74-.94-10.19,1.11-8.13,1.46,1.46,1.6,5.12.8,9.82-.64-.54-1.28-1.1-1.91-1.68Zm17.15,50.85c-3,0-4.91-1.89-5.13-8.7,1.75-.81,3.35-1.29,4.72-1.29,7.81,0,5.53,9.98.4,9.98Z"/>
            </g>
            <g>
              <path d="m354.32,46.37c-.99-.99-2.91,1.89-3.32,5.66,1.67.09,4.27-4.71,3.32-5.66Z"/>
              <path d="m340.79,32.37c-10.4,0-18.83,8.43-18.83,18.82s8.43,18.82,18.83,18.82,18.82-8.42,18.82-18.82-8.43-18.82-18.82-18.82Zm12.56,25.67c-1.33.15-2.43-.39-3-.79-.3.57-1.62,1.36-2.99,1.36s-3.56-.79-3.56-3.36c0-3.07,1.14-6.16.66-6.65-.74-.73-3.56,2.69-4.17,6.88-.35,1.98-.76,3.51-1.29,4.04-1.53,1.52-2.84.26-2.84.26,1.48-1.48,1.73-9.26,3-15.1-.38,0-.76-.01-1.17-.01-.16,0-.32,0-.48,0-1.92,3.08-2.21,15.57-4.23,17.59-2.02,2.02-3.75.1-3.75.1,2.93,0,3.3-15.02,5.05-17.48-2.18.3-4.2.93-5.38,2.11-2.72,2.72.82,5.56,2.92,3.47,0,2.83-4.23,3.7-5.95,1.99-1.06-1.06-2.06-4.16.91-7.12,3.15-3.15,8.01-3.02,12.53-3.03.84-4.66,5.37-5.73,7.77-3.33,2.04,2.05-.32,5.72-5.48,5.72-.23,1.27-.43,2.69-.63,4.15,1.89-2.55,4.38-2.93,5.61-1.67,1.67,1.71-.33,4.73-.33,7.38,0,2.32,1.66,3.26,3.02,1.9-3.03-5.18,2.24-14.37,5.98-10.63,2.83,2.83-2.54,9.01-4.47,7.78.11.57.52,2.4,1.84,2.4s2.73-1.71,2.75-3.09c1.98,1.98-.12,4.89-2.31,5.14Z"/>
              <path d="m345.07,39.83c-.47-.59-2.47-.96-2.86,2.41.23,0,.45-.02.67-.04,2.25-.21,2.68-1.77,2.19-2.37Z"/>
            </g>
            <g class="cls-1">
              <path d="m228.14,93.46s5.52,5.4,11.16-1c2.97-3.36,3.82-14.06,4.7-24.8,2.51-1.61,6.44-.85,6.8,5,0,0,6.66-8.37,1.53-12.9-1.82-1.61-4.6-1.01-7.68.42.74-7.67,1.77-14.42,3.94-17.3,2.31-.24,4.71-.44,7.17-.59,20.01-1.25,27.46-2.66,26.71-14.67-9.98,11.32-53.95,1.16-70.68,20.13-8.91,10.1-5.09,19.8-1.48,22.99,5.85,5.15,19.22,1.51,18.65-7.55-6.28,7.12-18.21-1.26-10.04-10.52,3.62-4.1,11.24-6.89,21.12-8.61-.12.13-.24.25-.36.39-2.18,2.47-3.1,11.36-4.04,20.9-3.05,1.8-5.77,3.14-7.51,2.69.31,4.99,3.23,5.7,6.76,4.63-1.18,10.8-2.8,20.56-6.76,20.8Z"/>
              <path d="m277.46,66.53c-2.39,5.99-5.86,11.58-9.9,11.43-1.06-.04-2.16-.47-3.29-1.39-1.37-1.12-1.9-3.16-1.88-5.61,5.23,4.7,21.75-14.39,13.41-22.89-8.5-8.66-20.75,10.62-20.75,24.54,0,9.15,8.08,12.15,12.73,11.37,5.14-.86,9.67-4.38,12.11-9.39,2.49,4.65,7.9,6.19,11.37,5.6,6.27-1.04,10.66-5.67,13.58-10.97,1.47,5.19,6.46,8.19,11.73,7.31,6.98-1.17,7.44-7.91,5.32-9.87-3.27,6.3-9.93,3.59-9.98-1.85-.07-7.02,6.98-32.15,4.2-37.55-2.22-4.31-8.05-1.66-8.05-1.66,2.97,2.97-2.09,23.67-3.97,35.4-3.84,8.89-10.92,16.21-16.33,11.79-1.36-1.11-1.9-3.17-1.88-5.61,5.23,4.7,21.75-14.39,13.41-22.89-1.45-1.47-3.01-2.14-4.59-2.15-3.83-.04-7.83,3.68-10.89,8.85-1.97,3.32-5.71,13.97-6.35,15.55Zm-5.66-12.76c2.69,2.73-4.14,13.37-8.93,13.08,1.51-7.49,6.32-15.75,8.93-13.08Zm23.48-3.79c2.69,2.73-4.14,13.36-8.94,13.08,1.52-7.49,6.32-15.75,8.94-13.08Z"/>
            </g>
          </g>
          <g id="Layer_2-2" data-name="Layer 2">
            <g id="Capa_1" data-name="Capa 1">
              <path d="m193.42,1.02c.07-.49-.27-.94-.75-1.01-.31-.04-.61.07-.81.31l-26.2,58.91c-12.03-18.46-33.7-29.13-60.9-29.13h-60.43v133.94h60.43c5.04.01,10.07-.39,15.05-1.19l-13.67,30.73c-.2.45,0,.97.44,1.17.12.02.24.02.36,0,.35,0,.67-.21.81-.53L193.42,1.02Zm-90.12,132.81h-29.13V60.31h29.13c21.68.03,36.32,13.63,36.32,36.78s-14.64,36.75-36.32,36.75Z"/>
              <polygon points="0 164.07 28.94 164.07 28.94 49.06 0 59.87 0 164.07"/>
              <polygon points="0 51.89 28.94 41.05 28.94 30.1 0 30.1 0 51.89"/>
            </g>
          </g>
        </g>
      </g>
    </g>
  </g>
</svg>