<?xml version="1.0" encoding="utf-8"?>
<!-- Generator: Adobe Illustrator 26.5.0, SVG Export Plug-In . SVG Version: 6.00 Build 0)  -->
<svg version="1.1" id="Capa_1" xmlns="http://www.w3.org/2000/svg" xmlns:xlink="http://www.w3.org/1999/xlink" x="0px" y="0px"
	 viewBox="0 0 1040.9 964" style="enable-background:new 0 0 1040.9 964;" xml:space="preserve">
<style type="text/css">
	.st0{fill:url(#SVGID_1_);}
	.st1{fill:url(#SVGID_00000108267544268101764320000000066434247228512186_);}
	.st2{fill:#2B3260;}
	.st3{fill:#37417D;}
	.st4{fill:#FFFFFF;}
</style>
<linearGradient id="SVGID_1_" gradientUnits="userSpaceOnUse" x1="361.1177" y1="-28.9398" x2="1069.8396" y2="679.7821" gradientTransform="matrix(1 0 0 -1 0 964)">
	<stop  offset="0" style="stop-color:#40C4FF"/>
	<stop  offset="1" style="stop-color:#9C27B0"/>
</linearGradient>
<path class="st0" d="M891.2,105.6L735.8,261c52.6,51.1,85.4,122.6,85.4,201.7c0,155.5-126,281.5-281.5,281.5
	c-79.2,0-150.6-32.8-201.7-85.4L182.5,814.3C273.4,906.7,399.8,964,539.7,964c276.8,0,501.2-224.4,501.2-501.2
	C1040.9,322.9,983.6,196.5,891.2,105.6L891.2,105.6z"/>
<linearGradient id="SVGID_00000023278996592041580110000008958354640975513223_" gradientUnits="userSpaceOnUse" x1="-31.7363" y1="287.0363" x2="676.9587" y2="995.7313" gradientTransform="matrix(1 0 0 -1 0 964)">
	<stop  offset="0" style="stop-color:#9C27B0"/>
	<stop  offset="1" style="stop-color:#40C4FF"/>
</linearGradient>
<path style="fill:url(#SVGID_00000023278996592041580110000008958354640975513223_);" d="M219.7,501.2
	c0-155.5,126-281.5,281.5-281.5c76.3,0,145.4,30.5,196.1,79.8l155.4-155.4C762.3,55,638.2,0,501.2,0C224.4,0,0,224.4,0,501.2
	c0,137,55,261.1,144.1,351.6l155.4-155.4C250.2,646.7,219.7,577.5,219.7,501.2L219.7,501.2z"/>
<path class="st2" d="M345.2,205.6h363.7c46.5,0,84.2,37.7,84.2,84.2v363.7c0,46.5-37.7,84.2-84.2,84.2H345.2
	c-46.5,0-84.2-37.7-84.2-84.2V289.7C261,243.3,298.7,205.6,345.2,205.6z"/>
<path class="st3" d="M404.2,249h245.7c46.5,0,84.2,37.7,84.2,84.2v245.7c0,46.5-37.7,84.2-84.2,84.2H404.2
	c-46.5,0-84.2-37.7-84.2-84.2V333.2C320,286.7,357.7,249,404.2,249z"/>
<path class="st4" d="M576.1,552.9l-64.6-206c-4.7-15-18.7-25.3-34.4-25.3H447c-15.9,0-29.9,10.4-34.5,25.6l-63.6,206
	c-3.2,10.2,2.5,21,12.7,24.2c1.9,0.6,3.8,0.9,5.8,0.9h23.3c8.5,0,16-5.6,18.5-13.7l11.2-36.8h68.7l10.2,36.5c2.4,8.3,10,14,18.6,14
	h39.4c10.7,0.2,19.5-8.3,19.7-19C577.1,557.2,576.8,555,576.1,552.9z M433.9,471.6l20.5-74.4l20.8,74.4H433.9z"/>
<path class="st4" d="M661.8,321.6h-29.5c-13.6,0-24.6,11-24.6,24.6v207.3c0,13.6,11,24.6,24.6,24.6h29.5c13.6,0,24.6-11,24.6-24.5
	c0,0,0,0,0-0.1V346.2C686.4,332.6,675.4,321.6,661.8,321.6C661.8,321.6,661.8,321.6,661.8,321.6z"/>
</svg>
