<svg id="Capa_1" data-name="Capa 1" xmlns="http://www.w3.org/2000/svg" viewBox="0 0 400.9 195.7"><defs><style>.cls-1{fill:#1d1d1b;stroke:#000;stroke-miterlimit:10;}</style></defs><g id="Layer_2" data-name="Layer 2"><g id="Layer_1-2" data-name="Layer 1-2"><path class="cls-1" d="M219.4,88.7c-27.5-25.2-57.8,15.7-40.2,31.8a9,9,0,0,0,9.9,1.8c-15-13.8,8.9-43.2,23.8-29.6,13.5,12.3,3.7,58.4-9.2,45.9-4.7-4.5-2.7-17.3-2.4-18.9,1.5-8.5,3.3-15.3,5.8-18,0,0-5.8-4.6-12.3,2.5-7.5,8.2-7,75.9-19.5,76.4,0,0,6.2,7.7,14.3-1.2,4.1-4.4,6.2-19.9,8.2-35.9a14.44,14.44,0,0,0,2.7,3.4c20.3,18.5,41.3-37.7,18.9-58.2Z" transform="translate(0.5 0.5)"/><path class="cls-1" d="M388.7,111.1a22.84,22.84,0,0,0-6.3.9q.15-1.5.3-3.3c.7-7.1,3.6-11.7,3.6-15.7s-4-6.8-8.9-10.5a46.74,46.74,0,0,0,1.4-9.7c0-12.3-17-12.8-17-.9,0,3.3,1.8,7.2,6.2,11.6l2.3,2.3c-5.1,17-17.7,38.6-26.6,29.7a10.81,10.81,0,0,1-2.8-6.6c6.5,8.8,31.4-18.4,19.3-30.5-12.4-12.4-28.8,11.4-28.5,30.2-.6,8.9-4.8,14.9-8.6,11.8-4.2-3.4,7.7-31.6,3.2-37.5-2.6-3.3-8.3-2-8.3-2,0,10.1-3.8,20.1-5.6,30.5h0c-2.3,9.7-6.9,15.3-10,12.3-3.8-3.8,8-31.3,3.5-37.3-2.6-3.3-8.4-2.3-8.4-2.3,0,8.8-4.3,22.2-5.9,33.2-1.7,6.4-5,13.5-8.8,10.1s7.8-32.3,3.1-38.2c-2.6-3.2-8.2-1.8-8.2-1.8,0,4.4-4.7,14.5-11.2,19.2-1.1-5.5-3.5-10.1-7.6-12.5-22.3-13.3-38.5,35.6-18.4,47.5,15.7,9.4,26.4-10.1,26.7-27.2a23.06,23.06,0,0,0,7.7-7.2c-1.8,8.5-3.8,16.8-3.8,21.6,0,8.4,8,10.8,12.1,9.5a14.72,14.72,0,0,0,8.7-8.4c1.3,3,4.2,5.8,10,5,3.9-.5,8-4.1,10.8-8.2a10.69,10.69,0,0,0,11.2,4.6c5.8-1.6,9.7-4.7,11.5-10.3a10.7,10.7,0,0,0,1.4,1.6c1.9,2,6.5,5.5,12.2,4.4,11.5-2,21.2-20.9,26.2-36.7,1.7,1.8,2.6,2.7,2.6,2.7,0,3.3-3.8,11.7-4.6,22.7-11,6.2-43.8,31.6-78.4,31.6-21.8,0-28.5-9.5-28.5-9.2-2.1,13.4,9.1,23.7,25.7,23.7,30.4,0,67.4-29,81.7-38.1a14,14,0,0,0,13.1,10.2c7.8,0,13.1-5.1,13.1-12.8.1-5.5-3.3-10-11.2-10ZM251.9,100.7c.4.2.8.4,1.3.7,1.9,1.4,3,4.1,3.5,7.3a13.87,13.87,0,0,1-3.7-2.3c-2.1-2.1-2-4.6-1.1-5.7Zm-6.7,33.6c-5.2-3.8-4.8-19.7-.9-28.3a13.42,13.42,0,0,0,4.9,6.7,18.13,18.13,0,0,0,7.6,3.6c-1.1,10.6-6.3,21.8-11.6,18ZM354.9,82.6c4,4-7.2,23.1-14,21C342.4,92.1,350.9,78.6,354.9,82.6Zm15.3-5.9c-4-3.7-.9-10.2,1.1-8.1,1.5,1.5,1.6,5.1.8,9.8-.6-.5-1.2-1.1-1.9-1.7Zm17.2,50.9c-3,0-4.9-1.9-5.1-8.7a12.41,12.41,0,0,1,4.7-1.3c7.8,0,5.5,9.9.4,10Z" transform="translate(0.5 0.5)"/><path class="cls-1" d="M354.3,46.4c-1-1-2.9,1.9-3.3,5.7C352.7,52.1,355.3,47.3,354.3,46.4Z" transform="translate(0.5 0.5)"/><path class="cls-1" d="M340.8,32.4a18.8,18.8,0,1,0,18.8,18.8A18.78,18.78,0,0,0,340.8,32.4ZM353.4,58a4.31,4.31,0,0,1-3-.8,3.72,3.72,0,0,1-3,1.4,3.37,3.37,0,0,1-3.6-3.4c0-3.1,1.1-6.2.7-6.7-.7-.7-3.6,2.7-4.2,6.9-.4,2-.8,3.5-1.3,4a2,2,0,0,1-2.8.3c1.5-1.5,1.7-9.3,3-15.1h-1.7c-1.9,3.1-2.2,15.6-4.2,17.6a2.55,2.55,0,0,1-3.8.1c2.9,0,3.3-15,5-17.5-2.2.3-4.2.9-5.4,2.1-2.7,2.7.8,5.6,2.9,3.5,0,2.8-4.2,3.7-6,2-1.1-1.1-2.1-4.2.9-7.1,3.1-3.2,8-3,12.5-3,.8-4.7,5.4-5.7,7.8-3.3,2,2-.3,5.7-5.5,5.7q-.3,1.95-.6,4.2c1.9-2.5,4.4-2.9,5.6-1.7,1.7,1.7-.3,4.7-.3,7.4,0,2.3,1.7,3.3,3,1.9-3-5.2,2.2-14.4,6-10.6,2.8,2.8-2.5,9-4.5,7.8.1.6.5,2.4,1.8,2.4s2.7-1.7,2.8-3.1c2.1,1.9,0,4.8-2.1,5Z" transform="translate(0.5 0.5)"/><path class="cls-1" d="M345.1,39.8c-.5-.6-2.5-1-2.9,2.4h.7c2.2-.2,2.7-1.8,2.2-2.4Z" transform="translate(0.5 0.5)"/><path class="cls-1" d="M228.1,93.5s5.5,5.4,11.2-1c3-3.4,3.8-14.1,4.7-24.8,2.5-1.6,6.4-.8,6.8,5,0,0,6.7-8.4,1.5-12.9-1.8-1.6-4.6-1-7.7.4.7-7.7,1.8-14.4,3.9-17.3l7.2-.6c20-1.2,27.5-2.7,26.7-14.7-10,11.3-53.9,1.2-70.7,20.1-8.9,10.1-5.1,19.8-1.5,23,5.9,5.2,19.2,1.5,18.6-7.5-6.3,7.1-18.2-1.3-10-10.5,3.6-4.1,11.2-6.9,21.1-8.6l-.4.4c-2.2,2.5-3.1,11.4-4,20.9-3.1,1.8-5.8,3.1-7.5,2.7.3,5,3.2,5.7,6.8,4.6-1.1,10.8-2.7,20.5-6.7,20.8Z" transform="translate(0.5 0.5)"/><path class="cls-1" d="M277.5,66.5c-2.4,6-5.9,11.6-9.9,11.4a5.3,5.3,0,0,1-3.3-1.4c-1.4-1.1-1.9-3.2-1.9-5.6,5.2,4.7,21.8-14.4,13.4-22.9C267.3,39.3,255,58.6,255,72.5a11.08,11.08,0,0,0,12.7,11.4,16.9,16.9,0,0,0,12.1-9.4,11.26,11.26,0,0,0,11.4,5.6c6.3-1,10.7-5.7,13.6-11a10.22,10.22,0,0,0,11.7,7.3c7-1.2,7.4-7.9,5.3-9.9-3.3,6.3-9.9,3.6-10-1.8-.1-7,7-32.2,4.2-37.5-2.2-4.3-8-1.7-8-1.7,3,3-2.1,23.7-4,35.4-3.8,8.9-10.9,16.2-16.3,11.8-1.4-1.1-1.9-3.2-1.9-5.6,5.2,4.7,21.8-14.4,13.4-22.9a6.85,6.85,0,0,0-4.6-2.2c-3.8,0-7.8,3.7-10.9,8.8-1.9,3.5-5.6,14.2-6.2,15.7Zm-5.7-12.7c2.7,2.7-4.1,13.4-8.9,13.1C264.4,59.4,269.2,51.1,271.8,53.8ZM295.3,50c2.7,2.7-4.1,13.4-8.9,13.1C287.9,55.6,292.7,47.3,295.3,50Z" transform="translate(0.5 0.5)"/><g id="Layer_2-2" data-name="Layer 2-2"><g id="Capa_1-2" data-name="Capa 1"><path class="cls-1" d="M193.4,1a.89.89,0,0,0-.8-1,1.14,1.14,0,0,0-.8.3L165.6,59.2c-12-18.5-33.7-29.1-60.9-29.1H44.3V164h60.4a96.05,96.05,0,0,0,15.1-1.2l-13.7,30.7a1,1,0,0,0,.4,1.2h.4a.89.89,0,0,0,.8-.5ZM103.3,133.8H74.2V60.3h29.1c21.7,0,36.3,13.6,36.3,36.8s-14.6,36.7-36.3,36.7Z" transform="translate(0.5 0.5)"/><polygon class="cls-1" points="0.5 164.6 29.4 164.6 29.4 49.6 0.5 60.4 0.5 164.6"/><polygon class="cls-1" points="0.5 52.4 29.4 41.5 29.4 30.6 0.5 30.6 0.5 52.4"/></g></g></g></g></svg>