<?xml version="1.0" encoding="utf-8"?>
<!-- Generator: Adobe Illustrator 25.2.1, SVG Export Plug-In . SVG Version: 6.00 Build 0)  -->
<svg version="1.1" id="Capa_1" xmlns="http://www.w3.org/2000/svg" xmlns:xlink="http://www.w3.org/1999/xlink" x="0px" y="0px"
	 viewBox="0 0 400 194.8" style="enable-background:new 0 0 400 194.8;" xml:space="preserve">
<style type="text/css">
	.st0{fill:#FFFFFF;}
</style>
<g>
	<g id="Layer_2">
		<g id="Layer_1-2">
			<g>
				<g>
					<g>
						<path class="st0" d="M219.4,88.7c-27.5-25.2-57.8,15.7-40.2,31.8c4.8,4.4,9.9,1.8,9.9,1.8c-15-13.8,8.9-43.2,23.8-29.6
							c13.5,12.3,3.7,58.4-9.2,45.9c-4.7-4.5-2.7-17.3-2.4-18.9c1.5-8.5,3.3-15.3,5.8-18c0,0-5.8-4.6-12.3,2.5
							c-7.5,8.2-7,75.9-19.5,76.4c0,0,6.2,7.7,14.3-1.2c4.1-4.4,6.2-19.9,8.2-35.9c0.7,1.2,1.6,2.4,2.7,3.4
							C220.8,165.4,241.8,109.2,219.4,88.7L219.4,88.7z"/>
						<path class="st0" d="M388.7,111.1c-2.1,0-4.2,0.3-6.3,0.9c0.1-1,0.2-2.1,0.3-3.3c0.7-7.1,3.6-11.7,3.6-15.7s-4-6.8-8.9-10.5
							c0.9-3.9,1.4-7.3,1.4-9.7c0-12.3-17-12.8-17-0.9c0,3.3,1.8,7.2,6.2,11.6c0.8,0.8,1.6,1.6,2.3,2.3c-5.1,17-17.7,38.6-26.6,29.7
							c-1.6-1.6-2.5-3.9-2.8-6.6c6.5,8.8,31.4-18.4,19.3-30.5c-12.4-12.4-28.8,11.4-28.5,30.2c-0.6,8.9-4.8,14.9-8.6,11.8
							c-4.2-3.4,7.7-31.6,3.2-37.5c-2.6-3.3-8.3-2-8.3-2c0,10.1-3.8,20.1-5.6,30.5c0,0,0,0,0,0c-2.3,9.7-6.9,15.3-10,12.3
							c-3.8-3.8,8-31.3,3.5-37.3c-2.6-3.3-8.4-2.3-8.4-2.3c0,8.8-4.3,22.2-5.9,33.2c-1.7,6.4-5,13.5-8.8,10.1
							c-3.7-3.4,7.8-32.3,3.1-38.2c-2.6-3.2-8.2-1.8-8.2-1.8c0,4.4-4.7,14.5-11.2,19.2c-1.1-5.5-3.5-10.1-7.6-12.5
							c-22.3-13.3-38.5,35.6-18.4,47.5c15.7,9.4,26.4-10.1,26.7-27.2c3.1-1.7,5.7-4.3,7.7-7.2c-1.8,8.5-3.8,16.8-3.8,21.6
							c0,8.4,8,10.8,12.1,9.5c4.1-1.4,7-4.5,8.7-8.4c1.3,3,4.2,5.8,10,5c3.9-0.5,8-4.1,10.8-8.2c2.5,4.2,8,5.5,11.2,4.6
							c5.8-1.6,9.7-4.7,11.5-10.3c0.4,0.6,0.9,1.1,1.4,1.6c1.9,2,6.5,5.5,12.2,4.4c11.5-2,21.2-20.9,26.2-36.7
							c1.7,1.8,2.6,2.7,2.6,2.7c0,3.3-3.8,11.7-4.6,22.7c-11,6.2-43.8,31.6-78.4,31.6c-21.8,0-28.5-9.5-28.5-9.2
							c-2.1,13.4,9.1,23.7,25.7,23.7c30.4,0,67.4-29,81.7-38.1c2,6.7,7.9,10.2,13.1,10.2c7.8,0,13.1-5.1,13.1-12.8
							C400,115.6,396.6,111.1,388.7,111.1L388.7,111.1z M251.9,100.7c0.4,0.2,0.8,0.4,1.3,0.7c1.9,1.4,3,4.1,3.5,7.3
							c-1.2-0.5-2.4-1.2-3.7-2.3C250.9,104.3,251,101.8,251.9,100.7L251.9,100.7z M245.2,134.3c-5.2-3.8-4.8-19.7-0.9-28.3
							c0.8,2.4,2.3,4.8,4.9,6.7c2.6,2,5.1,3.1,7.6,3.6C255.7,126.9,250.5,138.1,245.2,134.3L245.2,134.3z M354.9,82.6
							c4,4-7.2,23.1-14,21C342.4,92.1,350.9,78.6,354.9,82.6z M370.2,76.7c-4-3.7-0.9-10.2,1.1-8.1c1.5,1.5,1.6,5.1,0.8,9.8
							C371.5,77.9,370.9,77.3,370.2,76.7L370.2,76.7z M387.4,127.6c-3,0-4.9-1.9-5.1-8.7c1.8-0.8,3.4-1.3,4.7-1.3
							C394.8,117.6,392.5,127.5,387.4,127.6L387.4,127.6z"/>
					</g>
					<g>
						<path class="st0" d="M354.3,46.4c-1-1-2.9,1.9-3.3,5.7C352.7,52.1,355.3,47.3,354.3,46.4z"/>
						<path class="st0" d="M340.8,32.4c-10.4,0-18.8,8.4-18.8,18.8S330.4,70,340.8,70s18.8-8.4,18.8-18.8S351.2,32.4,340.8,32.4z
							 M353.4,58c-1.3,0.2-2.4-0.4-3-0.8c-0.3,0.6-1.6,1.4-3,1.4s-3.6-0.8-3.6-3.4c0-3.1,1.1-6.2,0.7-6.7c-0.7-0.7-3.6,2.7-4.2,6.9
							c-0.4,2-0.8,3.5-1.3,4c-1.5,1.5-2.8,0.3-2.8,0.3c1.5-1.5,1.7-9.3,3-15.1c-0.4,0-0.8,0-1.2,0c-0.2,0-0.3,0-0.5,0
							c-1.9,3.1-2.2,15.6-4.2,17.6c-2,2-3.8,0.1-3.8,0.1c2.9,0,3.3-15,5-17.5c-2.2,0.3-4.2,0.9-5.4,2.1c-2.7,2.7,0.8,5.6,2.9,3.5
							c0,2.8-4.2,3.7-6,2c-1.1-1.1-2.1-4.2,0.9-7.1c3.1-3.2,8-3,12.5-3c0.8-4.7,5.4-5.7,7.8-3.3c2,2-0.3,5.7-5.5,5.7
							c-0.2,1.3-0.4,2.7-0.6,4.2c1.9-2.5,4.4-2.9,5.6-1.7c1.7,1.7-0.3,4.7-0.3,7.4c0,2.3,1.7,3.3,3,1.9c-3-5.2,2.2-14.4,6-10.6
							c2.8,2.8-2.5,9-4.5,7.8c0.1,0.6,0.5,2.4,1.8,2.4s2.7-1.7,2.8-3.1C357.6,54.9,355.5,57.8,353.4,58L353.4,58z"/>
						<path class="st0" d="M345.1,39.8c-0.5-0.6-2.5-1-2.9,2.4c0.2,0,0.5,0,0.7,0C345.1,42,345.6,40.4,345.1,39.8L345.1,39.8z"/>
					</g>
					<g>
						<path class="st0" d="M228.1,93.5c0,0,5.5,5.4,11.2-1c3-3.4,3.8-14.1,4.7-24.8c2.5-1.6,6.4-0.8,6.8,5c0,0,6.7-8.4,1.5-12.9
							c-1.8-1.6-4.6-1-7.7,0.4c0.7-7.7,1.8-14.4,3.9-17.3c2.3-0.2,4.7-0.4,7.2-0.6c20-1.2,27.5-2.7,26.7-14.7
							c-10,11.3-53.9,1.2-70.7,20.1c-8.9,10.1-5.1,19.8-1.5,23c5.9,5.2,19.2,1.5,18.6-7.5c-6.3,7.1-18.2-1.3-10-10.5
							c3.6-4.1,11.2-6.9,21.1-8.6c-0.1,0.1-0.2,0.2-0.4,0.4c-2.2,2.5-3.1,11.4-4,20.9c-3.1,1.8-5.8,3.1-7.5,2.7
							c0.3,5,3.2,5.7,6.8,4.6C233.7,83.5,232.1,93.2,228.1,93.5L228.1,93.5z"/>
						<path class="st0" d="M277.5,66.5c-2.4,6-5.9,11.6-9.9,11.4c-1.1,0-2.2-0.5-3.3-1.4c-1.4-1.1-1.9-3.2-1.9-5.6
							c5.2,4.7,21.8-14.4,13.4-22.9c-8.5-8.7-20.8,10.6-20.8,24.5c0,9.2,8.1,12.2,12.7,11.4c5.1-0.9,9.7-4.4,12.1-9.4
							c2.5,4.7,7.9,6.2,11.4,5.6c6.3-1,10.7-5.7,13.6-11c1.5,5.2,6.5,8.2,11.7,7.3c7-1.2,7.4-7.9,5.3-9.9c-3.3,6.3-9.9,3.6-10-1.8
							c-0.1-7,7-32.2,4.2-37.5c-2.2-4.3-8-1.7-8-1.7c3,3-2.1,23.7-4,35.4c-3.8,8.9-10.9,16.2-16.3,11.8c-1.4-1.1-1.9-3.2-1.9-5.6
							c5.2,4.7,21.8-14.4,13.4-22.9c-1.5-1.5-3-2.1-4.6-2.2c-3.8,0-7.8,3.7-10.9,8.8C281.8,54.3,278.1,65,277.5,66.5L277.5,66.5z
							 M271.8,53.8c2.7,2.7-4.1,13.4-8.9,13.1C264.4,59.4,269.2,51.1,271.8,53.8z M295.3,50c2.7,2.7-4.1,13.4-8.9,13.1
							C287.9,55.6,292.7,47.3,295.3,50z"/>
					</g>
				</g>
				<g id="Layer_2-2">
					<g id="Capa_1_1_">
						<path class="st0" d="M193.4,1c0.1-0.5-0.3-0.9-0.8-1c-0.3,0-0.6,0.1-0.8,0.3l-26.2,58.9c-12-18.5-33.7-29.1-60.9-29.1H44.3
							V164h60.4c5,0,10.1-0.4,15.1-1.2l-13.7,30.7c-0.2,0.4,0,1,0.4,1.2c0.1,0,0.2,0,0.4,0c0.3,0,0.7-0.2,0.8-0.5L193.4,1z
							 M103.3,133.8H74.2V60.3h29.1c21.7,0,36.3,13.6,36.3,36.8S125,133.8,103.3,133.8L103.3,133.8z"/>
						<polygon class="st0" points="0,164.1 28.9,164.1 28.9,49.1 0,59.9 						"/>
						<polygon class="st0" points="0,51.9 28.9,41 28.9,30.1 0,30.1 						"/>
					</g>
				</g>
			</g>
		</g>
	</g>
</g>
</svg>
