<svg id="Capa_1" data-name="Capa 1" xmlns="http://www.w3.org/2000/svg" viewBox="0 0 399.99 194.76"><defs><style>.cls-1{fill:#fff;}</style></defs><g id="Layer_2" data-name="Layer 2"><g id="Layer_1-2" data-name="Layer 1-2"><path class="cls-1" d="M219.39,88.72c-27.53-25.15-57.78,15.72-40.21,31.77a9,9,0,0,0,9.86,1.83c-15-13.75,8.93-43.16,23.81-29.57,13.46,12.3,3.74,58.38-9.18,45.93-4.68-4.51-2.72-17.28-2.44-19,1.49-8.49,3.29-15.27,5.82-18,0,0-5.79-4.59-12.27,2.5-7.52,8.24-7,75.87-19.49,76.43,0,0,6.19,7.73,14.33-1.18,4-4.43,6.19-19.86,8.25-35.93a14,14,0,0,0,2.71,3.42c20.18,18.44,41.24-37.73,18.81-58.22Z" transform="translate(0 0)"/><path class="cls-1" d="M388.74,111.09a23,23,0,0,0-6.26.94q.12-1.55.3-3.3c.74-7.06,3.59-11.71,3.59-15.71s-3.95-6.81-8.89-10.48a46.81,46.81,0,0,0,1.37-9.66c0-12.31-17-12.8-17-.93,0,3.28,1.75,7.24,6.2,11.61l2.32,2.28c-5.12,17-17.72,38.6-26.63,29.69A10.86,10.86,0,0,1,340.9,109c6.54,8.8,31.39-18.39,19.29-30.48-12.41-12.41-28.75,11.42-28.45,30.2-.62,8.9-4.82,14.91-8.61,11.84-4.24-3.44,7.74-31.58,3.19-37.52-2.57-3.35-8.31-2-8.31-2,0,10.07-3.77,20.07-5.61,30.54h0c-2.29,9.71-6.93,15.34-10,12.28-3.79-3.8,8-31.34,3.46-37.28-2.57-3.35-8.41-2.26-8.41-2.26,0,8.82-4.28,22.15-5.92,33.22-1.7,6.41-5,13.55-8.77,10.11s7.82-32.34,3.13-38.18c-2.57-3.19-8.16-1.83-8.16-1.83,0,4.38-4.73,14.5-11.17,19.18C265.47,101.32,263,96.72,259,94.3c-22.27-13.29-38.5,35.57-18.43,47.54,15.7,9.37,26.42-10.05,26.71-27.22a23.45,23.45,0,0,0,7.74-7.16c-1.78,8.53-3.75,16.75-3.75,21.59,0,8.45,8,10.82,12.09,9.48a14.36,14.36,0,0,0,8.68-8.38c1.34,3,4.2,5.78,10,5,3.87-.49,8-4.05,10.79-8.21a10.6,10.6,0,0,0,11.21,4.6c5.75-1.64,9.74-4.7,11.52-10.31a15.27,15.27,0,0,0,1.39,1.64c1.94,2,6.46,5.46,12.18,4.45,11.48-2,21.19-20.92,26.19-36.67,1.74,1.75,2.63,2.67,2.63,2.67,0,3.33-3.84,11.73-4.57,22.69-11,6.25-43.84,31.64-78.38,31.64-21.75,0-28.52-9.49-28.52-9.25-2.09,13.4,9.15,23.71,25.7,23.71,30.42,0,67.37-29,81.73-38.14a13.86,13.86,0,0,0,13.1,10.22c7.77,0,13.06-5.08,13.06-12.79,0-5.85-3.35-10.36-11.26-10.36ZM251.92,100.67a6.58,6.58,0,0,1,1.27.72c1.94,1.4,3,4,3.51,7.26A11.63,11.63,0,0,1,253,106.3c-2.16-2-2-4.52-1.11-5.64Zm-6.67,33.65c-5.21-3.77-4.77-19.68-.93-28.34a14.09,14.09,0,0,0,4.87,6.71,19,19,0,0,0,7.58,3.63c-1.07,10.54-6.31,21.75-11.51,18ZM354.92,82.63c4,4-7.2,23.06-13.95,21C342.37,92.1,350.88,78.59,354.92,82.63Zm15.33-5.93c-4-3.74-.94-10.19,1.11-8.13,1.46,1.46,1.6,5.12.8,9.82-.64-.54-1.28-1.1-1.91-1.68Zm17.15,50.85c-3,0-4.91-1.89-5.13-8.7a11.75,11.75,0,0,1,4.72-1.29c7.81,0,5.53,10,.4,10Z" transform="translate(0 0)"/><path class="cls-1" d="M354.32,46.37c-1-1-2.91,1.89-3.32,5.66C352.67,52.12,355.27,47.32,354.32,46.37Z" transform="translate(0 0)"/><path class="cls-1" d="M340.79,32.37a18.82,18.82,0,1,0,18.82,18.82A18.83,18.83,0,0,0,340.79,32.37ZM353.35,58a4.47,4.47,0,0,1-3-.79,3.82,3.82,0,0,1-3,1.36,3.34,3.34,0,0,1-3.56-3.36c0-3.07,1.14-6.16.66-6.65-.74-.73-3.56,2.69-4.17,6.88-.35,2-.76,3.51-1.29,4a2,2,0,0,1-2.84.26c1.48-1.48,1.73-9.26,3-15.1h-1.65c-1.92,3.08-2.21,15.57-4.23,17.59a2.47,2.47,0,0,1-3.75.1c2.93,0,3.3-15,5.05-17.48-2.18.3-4.2.93-5.38,2.11-2.72,2.72.82,5.56,2.92,3.47,0,2.83-4.23,3.7-5.95,2-1.06-1.06-2.06-4.16.91-7.12,3.15-3.15,8-3,12.53-3,.84-4.66,5.37-5.73,7.77-3.33,2,2.05-.32,5.72-5.48,5.72-.23,1.27-.43,2.69-.63,4.15,1.89-2.55,4.38-2.93,5.61-1.67,1.67,1.71-.33,4.73-.33,7.38,0,2.32,1.66,3.26,3,1.9-3-5.18,2.24-14.37,6-10.63,2.83,2.83-2.54,9-4.47,7.78.11.57.52,2.4,1.84,2.4s2.73-1.71,2.75-3.09c2,2-.12,4.89-2.31,5.14Z" transform="translate(0 0)"/><path class="cls-1" d="M345.07,39.83c-.47-.59-2.47-1-2.86,2.41.23,0,.45,0,.67,0,2.25-.21,2.68-1.77,2.19-2.37Z" transform="translate(0 0)"/><path class="cls-1" d="M228.14,93.46s5.52,5.4,11.16-1c3-3.36,3.82-14.06,4.7-24.8,2.51-1.61,6.44-.85,6.8,5,0,0,6.66-8.37,1.53-12.9-1.82-1.61-4.6-1-7.68.42.74-7.67,1.77-14.42,3.94-17.3,2.31-.24,4.71-.44,7.17-.59,20-1.25,27.46-2.66,26.71-14.67-10,11.32-54,1.16-70.68,20.13-8.91,10.1-5.09,19.8-1.48,23,5.85,5.15,19.22,1.51,18.65-7.55-6.28,7.12-18.21-1.26-10-10.52,3.62-4.1,11.24-6.89,21.12-8.61l-.36.39c-2.18,2.47-3.1,11.36-4,20.9-3,1.8-5.77,3.14-7.51,2.69.31,5,3.23,5.7,6.76,4.63-1.18,10.8-2.8,20.56-6.76,20.8Z" transform="translate(0 0)"/><path class="cls-1" d="M277.46,66.53c-2.39,6-5.86,11.58-9.9,11.43a5.54,5.54,0,0,1-3.29-1.39c-1.37-1.12-1.9-3.16-1.88-5.61,5.23,4.7,21.75-14.39,13.41-22.89-8.5-8.66-20.75,10.62-20.75,24.54A11.1,11.1,0,0,0,267.78,84a16.78,16.78,0,0,0,12.11-9.39,11.33,11.33,0,0,0,11.37,5.6c6.27-1,10.66-5.67,13.58-11a10.23,10.23,0,0,0,11.73,7.31c7-1.17,7.44-7.91,5.32-9.87-3.27,6.3-9.93,3.59-10-1.85-.07-7,7-32.15,4.2-37.55-2.22-4.31-8.05-1.66-8.05-1.66,3,3-2.09,23.67-4,35.4-3.84,8.89-10.92,16.21-16.33,11.79-1.36-1.11-1.9-3.17-1.88-5.61,5.23,4.7,21.75-14.39,13.41-22.89a6.44,6.44,0,0,0-4.59-2.15c-3.83,0-7.83,3.68-10.89,8.85-2,3.32-5.71,14-6.35,15.55ZM271.8,53.77c2.69,2.73-4.14,13.37-8.93,13.08C264.38,59.36,269.19,51.1,271.8,53.77ZM295.28,50c2.69,2.73-4.14,13.36-8.94,13.08C287.86,55.57,292.66,47.31,295.28,50Z" transform="translate(0 0)"/><g id="Layer_2-2" data-name="Layer 2-2"><g id="Capa_1-2" data-name="Capa 1"><path class="cls-1" d="M193.42,1a.89.89,0,0,0-1.56-.7l-26.2,58.91c-12-18.46-33.7-29.13-60.9-29.13H44.33V164h60.43a93.69,93.69,0,0,0,15-1.19l-13.67,30.73a.89.89,0,0,0,.44,1.17,1.09,1.09,0,0,0,.36,0,.89.89,0,0,0,.81-.53ZM103.3,133.83H74.17V60.31H103.3c21.68,0,36.32,13.63,36.32,36.78S125,133.84,103.3,133.84Z" transform="translate(0 0)"/><polygon class="cls-1" points="0 164.07 28.94 164.07 28.94 49.06 0 59.87 0 164.07"/><polygon class="cls-1" points="0 51.89 28.94 41.05 28.94 30.1 0 30.1 0 51.89"/></g></g></g></g></svg>