<svg id="Capa_1" data-name="Capa 1" xmlns="http://www.w3.org/2000/svg" viewBox="0 0 510.73 511.07"><defs><style>.cls-1{fill:#c64f50;}</style></defs><path class="cls-1" d="M237.1,1c-49.2,4.1-95.7,21.5-133.7,50C47.1,93.4,11.9,153.7,2.4,224c-2.3,16.8-2.3,47.2,0,64,7.8,57.6,32.5,108,73,148.6a255,255,0,0,0,333.2,24.2c49-36.5,83.7-89.9,96.8-148.8a264.33,264.33,0,0,0,0-112C482.2,95.9,394.9,16.3,289,2.6,274,.6,250.2-.1,237.1,1ZM183.4,156.2c3.5,1,9.5,6.5,38.4,35.2l34.2,34,34.3-34C325.8,156,327.1,155,335.1,155c11.1,0,21.9,10.8,21.9,21.9,0,8-1,9.3-36.4,44.8l-34,34.3,34,34.3C356,325.8,357,327.1,357,335.1c0,11.1-10.8,21.9-21.9,21.9-8,0-9.3-1-44.8-36.4l-34.3-34-34.2,34C186.2,356,184.9,357,176.9,357c-11.1,0-21.9-10.8-21.9-21.9,0-8,1-9.3,36.4-44.9l34-34.2-34-34.3C156,186.2,155,184.9,155,176.9c0-10.8,10.7-21.7,21.4-21.9A29.31,29.31,0,0,1,183.4,156.2Z" transform="translate(-0.68 -0.48)"/></svg>