<?xml version="1.0" encoding="utf-8"?>
<!-- Generator: Adobe Illustrator 26.5.0, SVG Export Plug-In . SVG Version: 6.00 Build 0)  -->
<svg version="1.1" id="Capa_1" xmlns="http://www.w3.org/2000/svg" xmlns:xlink="http://www.w3.org/1999/xlink" x="0px" y="0px"
	 viewBox="0 0 50 50" style="enable-background:new 0 0 50 50;" xml:space="preserve">
<style type="text/css">
	.st0{fill:#FFFFFF;}
</style>
<g transform="translate(0.000000,50.000000) scale(0.100000,-0.100000)">
	<path class="st0" d="M108,448c-12-36-20-44-56-56c-23-7-42-17-42-21s19-14,42-22c35-13,44-22,56-57c7-23,17-42,22-42s15,19,22,42
		c12,36,20,44,56,56c23,7,42,17,42,22s-19,15-42,22c-36,12-44,20-56,56c-7,23-17,42-22,42S115,471,108,448z"/>
	<path class="st0" d="M327,383c-2-4-12-31-21-60c-17-50-19-52-74-71c-31-10-56-23-54-28c1-5,26-17,56-27c53-18,55-20,74-75
		c10-31,22-57,27-57s17,26,27,57c19,55,21,57,74,75c30,10,54,23,54,28c0,6-24,18-54,28c-53,18-56,20-72,70C346,379,335,397,327,383z
		"/>
	<path class="st0" d="M71,160c-7-20-21-34-41-41c-38-14-38-22,0-36c20-7,34-22,41-42c14-39,24-39,38-1c7,20,21,34,41,41
		c16,6,30,15,30,19s-14,13-30,19c-20,7-34,21-41,41c-6,16-15,30-19,30S77,176,71,160z"/>
</g>
</svg>
