<?xml version="1.0" standalone="no"?>
<!DOCTYPE svg PUBLIC "-//W3C//DTD SVG 20010904//EN"
 "http://www.w3.org/TR/2001/REC-SVG-20010904/DTD/svg10.dtd">
<svg version="1.0" xmlns="http://www.w3.org/2000/svg"
 width="512.000000pt" height="512.000000pt" viewBox="0 0 512.000000 512.000000"
 preserveAspectRatio="xMidYMid meet">

<g transform="translate(0.000000,512.000000) scale(0.100000,-0.100000)"
fill="#000000" stroke="none">
<path d="M4225 4448 c-22 -5 -52 -21 -68 -36 -25 -24 -107 -154 -107 -170 0
-4 39 -29 88 -56 48 -27 168 -96 267 -154 99 -57 183 -106 186 -108 8 -5 88
136 99 176 14 48 -5 111 -43 148 -40 37 -311 193 -352 202 -16 3 -48 3 -70 -2z"/>
<path d="M3770 3957 c-25 -22 -93 -87 -152 -143 l-107 -102 -63 14 c-266 57
-602 34 -887 -62 -522 -174 -931 -583 -1105 -1105 -122 -364 -122 -754 -1
-1117 150 -447 469 -811 890 -1017 630 -308 1368 -218 1907 231 186 155 355
375 457 594 289 622 197 1348 -241 1876 l-58 71 47 201 c25 111 45 203 42 206
-2 2 -101 59 -219 126 -118 68 -246 142 -285 165 -38 23 -95 55 -125 72 l-55
32 -45 -42z m-340 -470 c304 -64 565 -210 786 -439 496 -515 563 -1296 163
-1899 -84 -126 -282 -324 -408 -408 -265 -175 -532 -256 -851 -256 -424 0
-770 144 -1071 444 -230 230 -368 490 -426 804 -25 129 -24 418 1 542 63 316
197 567 425 796 261 260 509 380 916 443 17 2 102 3 190 1 119 -3 189 -10 275
-28z"/>
<path d="M2800 2920 l0 -120 320 0 320 0 0 120 0 120 -320 0 -320 0 0 -120z"/>
<path d="M3082 2070 c-27 -12 -42 -48 -42 -104 l0 -44 -60 -4 c-74 -5 -95 -23
-95 -78 0 -55 21 -73 95 -78 l60 -4 0 -47 c0 -25 6 -57 13 -70 16 -32 60 -46
96 -31 35 14 51 47 51 105 l0 45 45 0 c58 0 91 16 105 51 15 36 1 80 -31 96
-13 7 -45 13 -70 13 l-47 0 -4 60 c-2 34 -11 67 -19 75 -19 19 -68 27 -97 15z"/>
<path d="M850 3667 c-38 -19 -54 -60 -38 -94 25 -53 23 -53 560 -51 497 3 497
3 519 25 29 29 29 77 0 106 -22 22 -22 22 -519 25 -388 1 -502 -1 -522 -11z"/>
<path d="M370 2707 c-38 -19 -54 -60 -38 -94 25 -52 32 -53 440 -51 374 3 378
3 399 25 29 29 29 77 0 106 -21 22 -25 22 -399 25 -291 2 -383 -1 -402 -11z"/>
<path d="M370 1747 c-38 -19 -54 -60 -38 -94 25 -52 35 -53 400 -51 332 3 338
3 359 25 14 13 22 34 22 53 0 19 -8 40 -22 53 -21 22 -27 22 -359 25 -259 2
-343 -1 -362 -11z"/>
<path d="M1090 307 c-38 -19 -54 -60 -38 -94 25 -53 23 -53 560 -51 497 3 497
3 519 25 29 29 29 77 0 106 -22 22 -22 22 -519 25 -388 1 -502 -1 -522 -11z"/>
</g>
</svg>
