<?xml version="1.0" standalone="no"?>
<svg xmlns:xlink="http://www.w3.org/1999/xlink" id="wave" style="transform:rotate(180deg); transition: 0.3s" viewBox="0 0 1440 440" version="1.1" xmlns="http://www.w3.org/2000/svg"><defs><linearGradient id="sw-gradient-0" x1="0" x2="0" y1="1" y2="0"><stop stop-color="rgba(25.661, 68.86, 191.606, 1)" offset="0%"/><stop stop-color="rgba(10.137, 173.554, 232.588, 0.74)" offset="100%"/></linearGradient></defs><path style="transform:translate(0, 0px); opacity:1" fill="url(#sw-gradient-0)" d="M0,176L720,88L1440,308L2160,352L2880,0L3600,0L4320,308L5040,0L5760,44L6480,88L7200,308L7920,0L8640,132L9360,88L10080,176L10800,396L11520,352L12240,176L12960,132L13680,176L14400,396L15120,132L15840,264L16560,176L17280,352L17280,440L16560,440L15840,440L15120,440L14400,440L13680,440L12960,440L12240,440L11520,440L10800,440L10080,440L9360,440L8640,440L7920,440L7200,440L6480,440L5760,440L5040,440L4320,440L3600,440L2880,440L2160,440L1440,440L720,440L0,440Z"/><defs><linearGradient id="sw-gradient-1" x1="0" x2="0" y1="1" y2="0"><stop stop-color="rgba(20.319, 106.493, 182.499, 0.63)" offset="0%"/><stop stop-color="rgba(11, 140.65, 255, 0.65)" offset="100%"/></linearGradient></defs><path style="transform:translate(0, 50px); opacity:0.9" fill="url(#sw-gradient-1)" d="M0,132L720,308L1440,352L2160,132L2880,396L3600,264L4320,44L5040,44L5760,0L6480,44L7200,220L7920,44L8640,132L9360,220L10080,44L10800,44L11520,308L12240,308L12960,44L13680,220L14400,220L15120,88L15840,44L16560,308L17280,264L17280,440L16560,440L15840,440L15120,440L14400,440L13680,440L12960,440L12240,440L11520,440L10800,440L10080,440L9360,440L8640,440L7920,440L7200,440L6480,440L5760,440L5040,440L4320,440L3600,440L2880,440L2160,440L1440,440L720,440L0,440Z"/></svg>