<?xml version="1.0" standalone="no"?>
<svg xmlns:xlink="http://www.w3.org/1999/xlink" id="wave" style="transform:rotate(0deg); transition: 0.3s" viewBox="0 0 1440 490" version="1.1" xmlns="http://www.w3.org/2000/svg"><defs><linearGradient id="sw-gradient-0" x1="0" x2="0" y1="1" y2="0"><stop stop-color="rgba(130.239, 66.608, 232.588, 1)" offset="0%"/><stop stop-color="rgba(67.048, 173.449, 189.329, 1)" offset="100%"/></linearGradient></defs><path style="transform:translate(0, 0px); opacity:1" fill="url(#sw-gradient-0)" d="M0,147L720,49L1440,196L2160,294L2880,441L3600,147L4320,49L5040,147L5760,343L6480,49L7200,343L7920,294L8640,343L9360,0L10080,441L10800,49L11520,294L12240,294L12960,0L13680,441L14400,245L15120,294L15840,392L16560,147L17280,294L17280,490L16560,490L15840,490L15120,490L14400,490L13680,490L12960,490L12240,490L11520,490L10800,490L10080,490L9360,490L8640,490L7920,490L7200,490L6480,490L5760,490L5040,490L4320,490L3600,490L2880,490L2160,490L1440,490L720,490L0,490Z"/><defs><linearGradient id="sw-gradient-1" x1="0" x2="0" y1="1" y2="0"><stop stop-color="rgba(45.314, 103.522, 192.365, 1)" offset="0%"/><stop stop-color="rgba(82.57, 178.029, 206.784, 1)" offset="100%"/></linearGradient></defs><path style="transform:translate(0, 50px); opacity:0.9" fill="url(#sw-gradient-1)" d="M0,392L720,196L1440,49L2160,196L2880,147L3600,196L4320,147L5040,0L5760,294L6480,294L7200,49L7920,392L8640,49L9360,98L10080,196L10800,49L11520,441L12240,245L12960,441L13680,147L14400,196L15120,245L15840,196L16560,98L17280,294L17280,490L16560,490L15840,490L15120,490L14400,490L13680,490L12960,490L12240,490L11520,490L10800,490L10080,490L9360,490L8640,490L7920,490L7200,490L6480,490L5760,490L5040,490L4320,490L3600,490L2880,490L2160,490L1440,490L720,490L0,490Z"/></svg>